<svg role="img" style="background-color: #0D1117;" version="1.1" viewBox="0 0 24 24" xmlns="http://www.w3.org/2000/svg">
  <title>MongoSteel</title>
  <!-- Based of simple-icon's MongoDB SVG -->
  <path d="m21.38 10.55q0.1361 0 0.2059 0.1085 0.06987 0.1066 0.06987 0.3015t-0.06803 0.3052q-0.06619 0.1085-0.2078 0.1085-0.1305 0-0.2004-0.1085-0.06803-0.1103-0.06803-0.3052t0.06435-0.3015q0.06435-0.1085 0.2041-0.1085zm0.8402 0.01839-0.7281 1.313h-0.1416l0.7281-1.313zm-0.8402 0.09561q-0.06987 0-0.103 0.07538-0.03125 0.07354-0.03125 0.2206 0 0.1471 0.03125 0.2225 0.03309 0.07538 0.103 0.07538 0.1416 0 0.1416-0.2978 0-0.296-0.1416-0.296zm0.8034 0.4118q0.1342 0 0.2041 0.1085 0.0717 0.1066 0.0717 0.3015 0 0.1949-0.06803 0.3052-0.06619 0.1085-0.2078 0.1085-0.1305 0-0.2004-0.1085-0.06803-0.1103-0.06803-0.3052 0-0.1949 0.06435-0.3015 0.06435-0.1085 0.2041-0.1085zm0 0.1158q-0.06987 0-0.103 0.07354-0.03125 0.07354-0.03125 0.2206 0 0.1489 0.03125 0.2243 0.03309 0.07354 0.103 0.07354 0.1416 0 0.1416-0.2978 0-0.2942-0.1416-0.2942zm-1.252 0.03125q0 0.2114-0.04413 0.364-0.04412 0.1508-0.1397 0.2317-0.0956 0.0809-0.2537 0.0809-0.2225 0-0.3291-0.1783-0.1048-0.1802-0.1048-0.4982 0-0.2133 0.04229-0.364 0.04413-0.1508 0.1397-0.2298 0.0956-0.0809 0.2519-0.0809 0.2206 0 0.3291 0.1783 0.1085 0.1765 0.1085 0.4964zm-0.7097 0q0 0.2703 0.06067 0.4045 0.06251 0.1342 0.2114 0.1342 0.1471 0 0.2096-0.1324 0.06435-0.1342 0.06435-0.4063 0-0.2684-0.06435-0.4026-0.06251-0.1342-0.2096-0.1342-0.1489 0-0.2114 0.1342-0.06067 0.1342-0.06067 0.4026zm-0.3475 0.6582h-0.8678v-0.1342l0.3438-0.3475q0.09928-0.09928 0.1673-0.1765 0.06803-0.07722 0.103-0.1508 0.03493-0.07538 0.03493-0.1636 0-0.1085-0.06435-0.1636-0.06435-0.057-0.1673-0.057-0.09561 0-0.1691 0.03309-0.0717 0.03309-0.1471 0.09193l-0.08641-0.1085q0.07722-0.06435 0.1765-0.1085 0.1011-0.04596 0.2261-0.04596 0.1839 0 0.2905 0.09377 0.1066 0.09193 0.1066 0.2556 0 0.103-0.04229 0.193-0.04229 0.09009-0.1177 0.1783-0.07538 0.08641-0.1765 0.1857l-0.2739 0.2703v0.0074h0.6637zm-1.05-0.2133-0.866-0.3806v-0.09193l0.866-0.4321v0.1434l-0.6931 0.3273 0.6931 0.2905zm-6.169-11.6a11.97 11.97 0 0 0-8.273 2.725 11.97 11.97 0 0 0-3.102 14.55 11.97 11.97 0 0 0 13.46 6.34 11.97 11.97 0 0 0 9.242-11.66h-7.76a7.725 7.725 0 0 0 0.0059-0.3555c0.0069-0.5544-0.07075-1.131-0.1348-1.51-0.2171-0.9581-0.5098-1.754-0.8282-2.416l3.992-5.246a11.97 11.97 0 0 0-6.598-2.428zm-0.7227 5.127c0.1163 0.2758 0.2571 0.5928 0.416 0.8164 0.1822 0.3978 1.878 1.439 2.596 4.605 0.05334 0.3155 0.117 0.7959 0.1113 1.258a6.436 6.436 0 0 1-2.064 4.803c-0.1396 0.1305-0.2458 0.2266-0.4824 0.3945-0.1282 0.5754-0.2244 1.155-0.2891 1.74h-0.2734a41.7 41.7 0 0 0-0.1875-1.623l-0.03906-0.0293c-0.3507-0.2548-2.935-2.253-2.775-5.607 0.1714-3.597 2.281-5.364 2.691-5.686 0.2656-0.2832 0.2764-0.391 0.2969-0.6719zm0.1387 5.367c-0.1561-5.68e-4 -0.1562 4.705-0.1562 4.705 0 0.366 0.2193 1.338 0.4355 1.363 0 0-0.1584-6.068-0.2793-6.068z" fill="#fff"/>
</svg>
